<svg xmlns="http://www.w3.org/2000/svg" xmlns:xlink="http://www.w3.org/1999/xlink" width="25" height="25" viewBox="0 0 25 25">
    <defs>
        <path id="a" d="M24.865 24.865H0V0h24.865v24.865z"/>
    </defs>
    <g fill="none" fill-rule="evenodd">
        <mask id="b" fill="#fff">
            <use xlink:href="#a"/>
        </mask>
        <path fill="#D2D2D2" d="M21.301 17.986c-.335.99-1.186 1.65-2.23 1.652-4.352.011-8.704.015-13.057-.002-1.31-.005-2.315-1.046-2.32-2.358-.011-2.922-.007-5.843.003-8.765 0-.292.09-.584.138-.876l.154-.055c.097.13.178.276.291.39 1.97 1.974 3.941 3.947 5.914 5.917 1.467 1.465 3.245 1.463 4.715-.005l5.947-5.946c.107-.107.222-.206.34-.315l.212.42V17.7c-.036.095-.074.19-.107.286M6.01 6.196c4.365-.018 8.731-.018 13.097 0 .379.002.757.164 1.226.273-.18.198-.27.306-.368.405l-6.041 6.037c-.925.923-1.83.918-2.764-.013L5.15 6.893c-.102-.103-.2-.21-.394-.415.474-.11.863-.28 1.254-.281M12.433 0C5.566 0 0 5.566 0 12.433c0 6.866 5.566 12.433 12.433 12.433 6.866 0 12.432-5.567 12.432-12.433C24.865 5.566 19.299 0 12.433 0" mask="url(#b)"/>
    </g>
</svg>
