<svg xmlns="http://www.w3.org/2000/svg" xmlns:xlink="http://www.w3.org/1999/xlink" width="25" height="25" viewBox="0 0 25 25">
    <defs>
        <path id="a" d="M0 24.865V0h24.865v24.865z"/>
    </defs>
    <g fill="none" fill-rule="evenodd">
        <mask id="b" fill="#fff">
            <use xlink:href="#a"/>
        </mask>
        <path fill="#D2D2D2" d="M11.065 0H13.8c.057.03.112.078.171.086.367.053.735.097 1.102.143.016.002.031.006.046.01.192.065.381.138.577.19.124.034.245.038.374.096.212.096.454.118.667.24.121.07.277.081.416.12a.32.32 0 0 1 .07.03c.052.027.102.058.154.086.03.016.062.025.092.04.115.057.23.115.344.174l.56.283c.108.055.219.103.324.163.14.08.275.167.41.254.026.017.036.073.058.076.212.032.327.22.503.311.133.07.25.173.37.265.068.052.13.112.192.17.09.083.173.171.266.25.166.14.342.267.503.412a7.7 7.7 0 0 1 .499.489c.175.188.342.386.504.587.128.16.24.334.364.5.135.18.28.354.409.54.095.135.172.283.259.425.13.214.275.42.39.64.134.262.242.537.36.806.039.087.075.175.116.26.028.06.066.114.092.175.019.04.02.09.038.132.053.114.125.22.165.338.056.17.09.345.133.518l.01.045c.066.196.15.388.195.589.056.256.083.52.122.78.003.02.003.041.008.06.035.126.08.249.101.376.018.106.002.219.016.326.006.044.056.08.085.12v2.777c-.03.058-.079.114-.086.174-.022.186.023.397-.052.553-.12.25-.057.523-.168.772-.09.199-.099.433-.143.652-.003.01-.008.018-.012.028-.063.143-.133.283-.184.431-.057.166-.097.338-.144.508l-.01.029-.278.567c-.116.24-.226.485-.35.722-.14.273-.293.54-.445.807-.027.047-.084.077-.112.125-.093.157-.166.328-.272.476-.159.221-.338.428-.51.64-.097.122-.19.245-.293.362-.16.185-.32.37-.491.544a9.464 9.464 0 0 1-.514.47c-.148.128-.303.25-.455.373-.212.174-.42.35-.637.518-.071.055-.205.063-.236.128-.09.19-.298.19-.43.312-.123.116-.3.17-.452.257-.176.1-.347.209-.525.307-.09.05-.189.083-.282.128-.129.06-.253.13-.383.187-.127.056-.26.099-.387.153-.141.06-.276.139-.42.186-.165.055-.337.085-.506.126-.015.003-.031.005-.043.013-.199.125-.434.131-.65.196-.22.066-.456.08-.685.118-.024.004-.045.025-.07.032-.081.021-.163.04-.244.06l-.036-.208v-8.561h2.906l.088-.802c.004-.036.01-.071.017-.107.063-.328.133-.656.188-.986.028-.162.024-.33.046-.493.014-.104.059-.204.074-.309.017-.123-.023-.271.034-.367.09-.157.05-.306.074-.472h-.207c-1.015 0-2.03-.003-3.046.003-.142.001-.176-.05-.175-.177.005-.884.006-1.768.01-2.652 0-.05.011-.101.03-.147.056-.139.143-.27.172-.412.037-.182.17-.283.281-.397.138-.142.276-.277.485-.353.217-.08.42-.19.657-.19.58-.004 1.16-.005 1.74-.006h.17V5.105c-.113 0-.216.003-.318-.001a1.212 1.212 0 0 1-.198-.032c-.111-.025-.22-.058-.333-.079-.06-.01-.124 0-.185-.006-.377-.03-.753-.076-1.13-.088-.557-.016-1.117-.027-1.669.09-.075.015-.159-.005-.23.018-.183.058-.36.134-.54.2-.14.05-.299.07-.42.148-.267.174-.567.299-.798.53-.134.134-.278.259-.41.395-.078.08-.146.171-.214.26-.1.132-.232.254-.284.403-.068.197-.222.347-.256.565-.023.145-.153.27-.187.416-.061.261-.062.537-.132.796-.186.69-.063 1.39-.09 2.084-.02.503-.004 1.008-.005 1.512 0 .07-.013.14-.02.224H7.397v3.534h3.107V24.636c0 .22-.084.29-.264.175-.118-.076-.231-.056-.347-.078-.21-.04-.417-.085-.626-.128l-.014-.005c-.177-.061-.35-.128-.529-.182-.162-.05-.327-.086-.491-.129a.161.161 0 0 1-.03-.01c-.138-.065-.276-.135-.417-.195-.128-.055-.26-.098-.389-.148-.093-.037-.187-.071-.277-.115-.117-.057-.23-.122-.344-.184-.113-.06-.23-.117-.34-.183-.14-.085-.273-.18-.412-.265-.165-.103-.331-.202-.498-.3-.091-.054-.185-.105-.277-.158-.016-.01-.03-.023-.045-.035l-.621-.51c-.127-.103-.26-.2-.38-.309-.167-.15-.327-.309-.487-.467-.17-.169-.345-.335-.506-.513-.134-.15-.25-.314-.377-.47-.171-.212-.35-.417-.516-.632-.058-.075-.064-.218-.131-.25-.189-.091-.185-.301-.31-.43-.11-.114-.158-.285-.238-.429-.112-.202-.23-.402-.342-.604-.04-.074-.066-.155-.103-.23-.063-.127-.135-.25-.192-.38-.056-.127-.093-.261-.147-.389-.059-.136-.14-.264-.187-.405-.056-.164-.086-.337-.127-.506-.005-.02 0-.045-.012-.06-.138-.19-.127-.426-.195-.637-.077-.233-.086-.488-.124-.734-.003-.02-.01-.04-.016-.06-.03-.094-.071-.187-.086-.284-.018-.122-.006-.25-.023-.372-.006-.05-.055-.096-.085-.143v-2.9c.135.001.084-.109.093-.171.05-.337.091-.674.136-1.01.002-.015.013-.029.017-.043.064-.217.13-.434.19-.652.047-.173.058-.366.142-.518.052-.097.064-.185.081-.282.005-.025.01-.066.024-.07.109-.035.082-.13.096-.205.007-.036.008-.074.023-.106.09-.189.184-.377.275-.565.117-.241.227-.487.35-.724.143-.273.294-.54.446-.807.027-.046.085-.075.112-.122.094-.157.18-.318.27-.478.002-.003.011-.003.014-.007.096-.128.19-.26.29-.386.05-.066.114-.124.171-.185.083-.09.169-.175.246-.268.068-.084.12-.182.19-.265.122-.145.249-.288.382-.422.164-.164.334-.322.508-.475.15-.132.312-.252.467-.379.208-.17.411-.345.623-.51.076-.06.177-.084.257-.14.143-.1.274-.22.42-.313.144-.091.304-.155.453-.239.187-.104.365-.224.554-.323.168-.088.346-.159.52-.235.088-.038.18-.068.266-.108.131-.06.256-.138.39-.188.155-.06.318-.095.476-.144.113-.034.225-.074.337-.111.205-.068.407-.152.617-.2.25-.056.507-.082.76-.121.02-.003.04-.01.059-.016.09-.03.176-.073.268-.085.132-.018.269-.005.402-.021.05-.006.094-.058.14-.088" mask="url(#b)"/>
    </g>
</svg>
