<svg xmlns="http://www.w3.org/2000/svg" width="25" height="25" viewBox="0 0 25 25">
    <path fill="#D2D2D2" fill-rule="evenodd" d="M10.08 18.537c-.172.315-.36.519-.393.745-.12.855-.614 1.21-1.412 1.249-.869.044-1.591-.24-2.142-.938-.305-.386-.557-.828-.91-1.159-.527-.495-1.14-.827-1.872-.493l-.303.36c.247.11.56.155.73.338.458.494.954.992 1.256 1.585.758 1.485 1.854 2.158 3.477 1.967.262-.03.522-.084.902-.146 0 .749.012 1.407-.003 2.065-.019.815-.331 1.055-1.087.782-1.704-.614-3.236-1.549-4.495-2.876-3.52-3.712-4.7-8.11-3.174-13.048 1.527-4.942 4.971-7.9 9.938-8.785 6.906-1.23 13.433 3.873 14.308 11.04.707 5.78-2.393 11.254-7.632 13.475-.15.063-.3.126-.454.178-.86.291-1.158.082-1.165-.84-.007-.941.06-1.887-.01-2.823-.068-.882-.273-1.753-.432-2.715.26-.056.726-.142 1.184-.258 2.45-.62 3.92-2.438 4.102-5.02.108-1.529-.03-2.978-1-4.246-.133-.175-.087-.507-.097-.767-.029-.764-.018-1.531-.073-2.294-.04-.562-.433-.772-.913-.598-.756.275-1.477.653-2.228.945-.324.125-.71.253-1.03.188a13.213 13.213 0 0 0-5.31.015c-.275.056-.609-.043-.883-.155C8.212 6 7.497 5.606 6.74 5.33c-.521-.191-.96-.03-1.024.646-.05.548-.237 1.128-.121 1.636.19.839-.105 1.43-.48 2.13-1.926 3.592.227 7.944 4.236 8.667.208.038.416.073.728.128"/>
</svg>
