<svg xmlns="http://www.w3.org/2000/svg" xmlns:xlink="http://www.w3.org/1999/xlink" width="81" height="49" viewBox="0 0 81 49">
    <defs>
        <path id="a" d="M36.98.088H0v48.877h36.98V.088z"/>
        <path id="c" d="M5.9.1v4.773H.002V.1H5.9z"/>
    </defs>
    <g fill="none" fill-rule="evenodd">
        <g>
            <mask id="b" fill="#fff">
                <use xlink:href="#a"/>
            </mask>
            <path fill="#F8E71C" d="M14.369 25.664c-2.285.293-4.346.032-6.31-.827-3.267-1.429-5.595-3.815-6.89-7.13C-.397 13.7-.372 9.642 1.139 5.618 1.76 3.97 2.704 2.513 4.113 1.41 5.264.51 6.55-.003 8.04.101c.679.047 1.257.29 1.675.84.483.634.465 1.394-.04 2.005a2.36 2.36 0 0 1-.436.419C7.109 4.895 6.035 7.06 5.55 9.564c-.467 2.411-.47 4.827.138 7.218.168.66.411 1.317.723 1.923 1.44 2.798 4.047 3.956 7.097 3.197 1.546-.385 2.947-1.089 4.273-1.954 5.276-3.44 9.25-8.018 11.937-13.723.448-.95.89-1.908 1.422-2.81.588-.995 1.414-1.754 2.563-2.101 1.032-.313 1.935-.07 2.675.662.717.707.732 1.593.37 2.48a14.566 14.566 0 0 1-.848 1.74 53.123 53.123 0 0 1-8.28 10.872c-.937.95-1.837 1.936-2.793 2.865-3.66 3.557-5.84 7.887-6.77 12.884-.63 3.377-1.272 6.752-1.899 10.129-.213 1.15-.133 2.12 1.15 2.724.85.4.85 1.172.207 1.917-.997 1.157-2.809 1.68-4.177 1.202-1.62-.564-2.62-1.823-2.543-3.58.079-1.81.256-3.636.603-5.413.86-4.402 1.84-8.778 2.773-13.165.058-.275.113-.551.198-.967" mask="url(#b)"/>
        </g>
        <path fill="#F8E71C" d="M54.417 40c-3.184-.095-5.722-.555-8.086-1.766-4-2.05-5.918-5.66-5.173-10.145 1.428-8.59 5.824-15.269 13.051-20.01 2.035-1.334 4.257-2.211 6.76-2.063 1.16.07 2.244.374 3.172 1.102.931.73 1.392 1.696 1.249 2.902-.177 1.493-1.613 2.343-2.965 1.714-.546-.253-1.028-.651-1.521-1.009-1.521-1.102-2.65-1.213-4.09-.004a38.51 38.51 0 0 0-4.28 4.179c-3.13 3.594-5.394 7.677-6.331 12.426-.289 1.462-.317 2.936.12 4.382.675 2.233 2.148 3.602 4.412 4.11 2.165.484 4.285.158 6.38-.38 3.267-.838 6.173-2.455 8.937-4.36.535-.367 1.082-.733 1.664-1.01.792-.377 1.502-.265 1.92.196.435.48.502 1.353.082 2.074a5.164 5.164 0 0 1-.907 1.144c-3.207 3.02-6.869 5.213-11.21 6.095-1.226.249-2.486.333-3.184.423"/>
        <g transform="translate(75 29)">
            <mask id="d" fill="#fff">
                <use xlink:href="#c"/>
            </mask>
            <path fill="#F8E71C" d="M2.2.1c.717.212 1.46.356 2.143.664.414.186.823.554 1.085.959.99 1.532.362 3-1.324 3.132-.996.077-1.971-.083-2.874-.595C.199 3.676-.165 2.9.072 1.825.325.668.959.182 2.199.099" mask="url(#d)"/>
        </g>
        <path fill="#F8E71C" d="M31.265 39.997c-.878-.049-1.897-.417-2.763-.99-.8-.529-.623-1.367.386-1.598 1.058-.244 2.186-.4 3.286-.409 1.147-.01 1.818.655 1.826 1.52.007.771-.83 1.407-1.948 1.475-.165.01-.332.002-.787.002"/>
    </g>
</svg>
