<?xml version="1.0" encoding="UTF-8"?>
<svg width="25px" height="25px" viewBox="0 0 25 25" version="1.1" xmlns="http://www.w3.org/2000/svg" xmlns:xlink="http://www.w3.org/1999/xlink">
    <!-- Generator: Sketch 47.1 (45422) - http://www.bohemiancoding.com/sketch -->
    <title>noun_Paper_2304321</title>
    <desc>Created with Sketch.</desc>
    <defs></defs>
    <g id="Page-1" stroke="none" stroke-width="1" fill="none" fill-rule="evenodd">
        <g id="Desktop-HD" transform="translate(-45.000000, -211.000000)">
            <g id="noun_Paper_2304321" transform="translate(45.000000, 211.000000)">
                <circle id="Oval" fill="#D2D2D2" cx="12.5" cy="12.5" r="12.5"></circle>
                <path d="M18.7912088,4 C19.4505495,4 20,4.5362776 20,5.23343849 L20,19.8201893 C20,20.4637224 19.4505495,21 18.7912088,21 L6.20879121,21 C5.54945055,21 5,20.4637224 5,19.8201893 L5,8.50473186 L8.18681319,8.50473186 C8.84615385,8.50473186 9.3956044,7.9148265 9.3956044,7.27129338 L9.3956044,4 L18.7912088,4 Z M7.42362003,11 L17.534018,11 C18.1553273,11 18.1553273,12 17.534018,12 L7.42362003,12 C6.85879332,12 6.85879332,11 7.42362003,11 Z M7.42253521,18 L11.5352113,18 C12.1549296,18 12.1549296,19 11.5352113,19 L7.42253521,19 C6.85915493,19 6.85915493,18 7.42253521,18 Z M7.42362003,16 L17.534018,16 C18.1553273,16 18.1553273,17 17.534018,17 L7.42362003,17 C6.85879332,17 6.85879332,16 7.42362003,16 Z M7.42362003,13 L17.534018,13 C18.1553273,13 18.1553273,14 17.534018,14 L7.42362003,14 C6.85879332,14 6.85879332,13 7.42362003,13 Z M8,6.51785714 C8,6.78571429 7.77777778,7 7.5,7 L5,7 L8,4 L8,6.51785714 Z" id="Shape" fill="#021926" transform="translate(12.500000, 12.500000) scale(-1, 1) translate(-12.500000, -12.500000) "></path>
            </g>
        </g>
    </g>
</svg>